<svg xmlns="http://www.w3.org/2000/svg" xmlns:xlink="http://www.w3.org/1999/xlink" viewBox="0 0 206.97 115.72"><defs><style>.cls-1{fill:url(#linear-gradient);}.cls-2{fill:url(#linear-gradient-2);}.cls-3{fill:url(#linear-gradient-3);}.cls-4{fill:url(#linear-gradient-4);}.cls-5{fill:url(#linear-gradient-5);}.cls-6{fill:url(#linear-gradient-6);}.cls-7{font-size:35.31px;fill:#5eaf00;stroke:#000;stroke-miterlimit:10;stroke-width:0.5px;font-family:Orbitron-Light, Orbitron;}.cls-8{letter-spacing:-0.02em;}</style><linearGradient id="linear-gradient" x1="-100.81" y1="12.31" x2="-43.25" y2="12.31" gradientTransform="translate(112 34.22) rotate(-35.75)" gradientUnits="userSpaceOnUse"><stop offset="0" stop-color="#009c33"/><stop offset="0.46" stop-color="#006b1b"/><stop offset="1" stop-color="#003501"/><stop offset="1" stop-color="#030"/></linearGradient><linearGradient id="linear-gradient-2" x1="-77.44" y1="12.28" x2="-66.62" y2="12.28" xlink:href="#linear-gradient"/><linearGradient id="linear-gradient-3" x1="-72.83" y1="20.43" x2="-71.23" y2="20.43" xlink:href="#linear-gradient"/><linearGradient id="linear-gradient-4" x1="-72.83" y1="4.17" x2="-71.23" y2="4.17" xlink:href="#linear-gradient"/><linearGradient id="linear-gradient-5" x1="-94.42" y1="12.58" x2="-76.82" y2="12.58" xlink:href="#linear-gradient"/><linearGradient id="linear-gradient-6" x1="-67.24" y1="12.03" x2="-49.64" y2="12.03" xlink:href="#linear-gradient"/></defs><title>Asset 2</title><g id="Layer_2" data-name="Layer 2"><g id="Layer_1-2" data-name="Layer 1"><path class="cls-1" d="M73.26,57.17a27.09,27.09,0,0,1-7.71,4.05,30.17,30.17,0,0,0-8.49,4.46,30.16,30.16,0,0,0-6.92,6.64,27.09,27.09,0,0,1-6.29,6,27.09,27.09,0,0,1-7.71,4.05,30.14,30.14,0,0,0-8.49,4.46,1.6,1.6,0,0,0-.36,2.23l18.69,26a1.6,1.6,0,0,0,2.23.36,27.09,27.09,0,0,1,7.71-4.05,30.17,30.17,0,0,0,8.49-4.46,30.16,30.16,0,0,0,6.92-6.64,31.13,31.13,0,0,1,14-10.08,30.14,30.14,0,0,0,8.49-4.46,1.6,1.6,0,0,0,.36-2.23l-18.69-26A1.6,1.6,0,0,0,73.26,57.17ZM90.63,84a26.36,26.36,0,0,1-6.4,3.14,30.16,30.16,0,0,0-8.49,4.46,30.15,30.15,0,0,0-6.92,6.64,27.09,27.09,0,0,1-6.29,6,27.1,27.1,0,0,1-7.71,4.05,29.43,29.43,0,0,0-7.18,3.55L30.82,88.55a26.36,26.36,0,0,1,6.4-3.14,30.16,30.16,0,0,0,8.49-4.46,30.15,30.15,0,0,0,6.92-6.64,27.09,27.09,0,0,1,6.29-6,27.1,27.1,0,0,1,7.71-4.05,29.43,29.43,0,0,0,7.18-3.55Z"/><path class="cls-2" d="M60.57,85.15c-2.89,1.2-3.91.93-4.57.14a1.94,1.94,0,0,1-.34-1.76A4.82,4.82,0,0,1,57.43,81a8.07,8.07,0,0,1,3-1.65A.8.8,0,0,0,60,77.84a9.43,9.43,0,0,0-3.2,1.65l.5.69a.8.8,0,0,1-1.3.93l-.4-.56a5.88,5.88,0,0,0-1.5,2.6,3.52,3.52,0,0,0,.66,3.16c1.62,2,4.15,1.25,6.4.31,2.79-1.12,3.8-.81,4.52.06,1,1.25.44,3.07-1.57,4.74a9.28,9.28,0,0,1-3.64,1.89.8.8,0,1,0,.32,1.57,10.58,10.58,0,0,0,3.73-1.76l.07-.05-.49-.68a.8.8,0,0,1,1.3-.93l.41.58c2.57-2.54,2.25-5,1.09-6.37C65.24,83.63,62.78,84.26,60.57,85.15Z"/><path class="cls-3" d="M64.31,91.27a.8.8,0,0,0-.18,1.12l.49.68.9,1.25a.8.8,0,1,0,1.3-.93l-1-1.36-.41-.58A.8.8,0,0,0,64.31,91.27Z"/><path class="cls-4" d="M57.13,81.3a.8.8,0,0,0,.18-1.12l-.5-.69-.88-1.22a.8.8,0,1,0-1.3.93l1,1.35.4.56A.8.8,0,0,0,57.13,81.3Z"/><path class="cls-5" d="M62.77,98.1A12,12,0,0,1,48.91,84.27a.79.79,0,0,0-.4-.79.87.87,0,0,0-.93.06,33.29,33.29,0,0,1-9.26,4.87c-.65.24-1.27.46-1.91.73a.8.8,0,0,0-.34,1.2l12,16.72a.8.8,0,0,0,1,.24,35,35,0,0,1,4.61-2,23.82,23.82,0,0,0,6.94-3.64,30.18,30.18,0,0,0,2.79-2.23.8.8,0,0,0-.68-1.38Zm-3,2.31a22.5,22.5,0,0,1-6.55,3.44A38.92,38.92,0,0,0,49,105.58L38,90.25l.9-.33a33.94,33.94,0,0,0,8.28-4.12A13.58,13.58,0,0,0,60.46,99.88Z"/><path class="cls-6" d="M60.79,70.88A30.18,30.18,0,0,0,58,73.11a.8.8,0,0,0,.68,1.38A12,12,0,0,1,72.54,88.32a.79.79,0,0,0,.4.79.87.87,0,0,0,.93-.06,33.29,33.29,0,0,1,9.26-4.87c.65-.24,1.27-.46,1.91-.73l.16-.09a.8.8,0,0,0,.18-1.11l-12-16.72a.8.8,0,0,0-1-.24,35,35,0,0,1-4.61,2A23.82,23.82,0,0,0,60.79,70.88ZM83.5,82.34l-.9.33a33.94,33.94,0,0,0-8.28,4.12A13.58,13.58,0,0,0,61,72.71l.73-.54a22.5,22.5,0,0,1,6.55-3.44A38.92,38.92,0,0,0,72.46,67l11,15.33Z"/><path d="M154.44.33a22.74,22.74,0,0,0-17.55,4.13,22.75,22.75,0,0,0-9.14,13.62,22.9,22.9,0,0,0,1.86,16.12l4-2.42a3.09,3.09,0,0,1,3.27-.28l1.34-1A1.5,1.5,0,1,1,140,33l-1.22.88a3.17,3.17,0,0,1-1.27,3.31l-3.54,3a23.56,23.56,0,0,0,40-12.85,22.67,22.67,0,0,0-4.1-17.53A22.69,22.69,0,0,0,154.44.33Zm3.8,17.08a.46.46,0,1,0,.11-.65A.46.46,0,0,0,158.24,17.41Zm-13-2.52a.46.46,0,1,0,.11-.65A.46.46,0,0,0,145.25,14.89Zm-.88.63a.46.46,0,1,0,.11-.65A.46.46,0,0,0,144.37,15.52Zm14.51,2.77a.46.46,0,1,0,.11-.65A.46.46,0,0,0,158.87,18.29Zm-1.7,13.17a.46.46,0,1,0,.11-.65A.46.46,0,0,0,157.17,31.46Zm-.88.63a.46.46,0,1,0,.11-.65A.46.46,0,0,0,156.29,32.09ZM80.41,52.66a42.23,42.23,0,0,1,3.27-3L80.36,52ZM124.2,39.23a5.53,5.53,0,0,1-3,.07l-12.37-2.15L101,42.8l18.64.07.21.3a8,8,0,0,0,4.34-3.94ZM120,26.35a1.83,1.83,0,0,1,.08,1l-.36.26-.7,0-5.59,4-.24-.33Zm-1.23-.83a1.82,1.82,0,0,1,.93.41l-6.8,4.9-.24-.33,5.59-4,.17-.71ZM100.82,81l.64.26,3.23-2.41q-2.55,1.47-3.87,2.15Zm26.63-37.27a7.72,7.72,0,0,0-5.11,2.87l.21.3-5.85,17.7L124.55,59l1.87-12.44a5.45,5.45,0,0,1,1-2.77Zm10.89,8-6.8,4.9-.24-.33,5.59-4,.17-.71.36-.26a2.4,2.4,0,0,1,.93.41Zm.38,1.4-.36.26-.7,0-5.59,4-.24-.33,6.8-4.9a2.11,2.11,0,0,1,.08,1ZM132,59.07a2.73,2.73,0,0,0,.91-.43l4.58-3.29q2.61-1.88,1.33-3.67a1.73,1.73,0,0,0-1.93-.62,5.25,5.25,0,0,0-1.94.75l-4.58,3.29a2.72,2.72,0,0,0-.72.7l-23.5,16.92q-.53.39-4.72,3.91t-3.8,4.06l.6.83q.34.48,5-2.34t5.23-3.2Zm-1.7-21-3,2.16q-.27.38.17.24l3-2.16Zm-2.63,2.8-.39.28-.68-1,.39-.28a17.14,17.14,0,0,1,2.9-3.31l-1-2,.35-.21q-.26-.49-.68-1.45a69.88,69.88,0,0,0-7.21,5.91,7.21,7.21,0,0,0,1.36.19,3.66,3.66,0,0,0,1.32-.23l1-.43-.53,1a9.69,9.69,0,0,1-3,3.26,7.59,7.59,0,0,1-.76.51q-.49.26-.8.39h0l-.3.08-.19-.27-.09-.12h-2.57q-3.94,3.74-5.46,4.88-3.31,2.43-1.55,4.86t5.1.07a59.09,59.09,0,0,1,6.36-3.63l.82-2.44L122,46.9l-.19-.27.17-.26h0a3.63,3.63,0,0,1,.63-.63,7.59,7.59,0,0,1,.72-.56,9.69,9.69,0,0,1,4-1.83l1.11-.21-.72.88a2.9,2.9,0,0,0-.64,1.18,4.18,4.18,0,0,0-.27,1.32,71.36,71.36,0,0,0,7.91-4.93,15.14,15.14,0,0,1-1.16-1.11l-.33.24-1.59-1.52a21.52,21.52,0,0,1-4.05,1.7ZM130,37a19.44,19.44,0,0,0-2,2.17l2.05-1.48.05-.49Zm.73,1.64-2.05,1.48a28.6,28.6,0,0,0,2.69-1.21l-.16-.16Zm9.2-7.53a1,1,0,0,0-1.53-.25L136.92,32a2.78,2.78,0,0,0-3.1.2l-4.36,2.6,1.08,2.38,0,.57.39.53.55.14,1.89,1.75,3.84-3.31a2.72,2.72,0,0,0,1.12-3.15l1.43-1a1,1,0,0,0,.25-1.53Zm-3.21,2.49h0a1.34,1.34,0,0,0-2.13-.32h0a1.33,1.33,0,0,0-.34,2.1h0a1.34,1.34,0,0,0,2.12.37h0a1.36,1.36,0,0,0,.35-2.15Zm.33-.24a1.72,1.72,0,0,1-.44,2.71h0a1.72,1.72,0,0,1-2.71-.44h0a1.72,1.72,0,0,1,.44-2.71h0a1.72,1.72,0,0,1,2.71.44Zm-1,.71h0a.65.65,0,0,0-1-.17h0a.63.63,0,0,0-.14,1h0a.63.63,0,0,0,1,.19h0a.65.65,0,0,0,.17-1Zm.33-.24a1,1,0,0,1-.26,1.58h0a1,1,0,0,1-1.55-.28h0a1,1,0,0,1,.23-1.56h0a1,1,0,0,1,1.58.26Zm-3.2,2.08.21.3L131,38l-.21-.3Zm18.32-13h0a1,1,0,0,0-1.53-.25h0a1,1,0,0,0-.25,1.53h0a1,1,0,0,0,1.53.25h0a1,1,0,0,0,.25-1.53Zm.33-.24a1.33,1.33,0,0,1-.34,2.1h0a1.33,1.33,0,0,1-2.1-.34h0a1.33,1.33,0,0,1,.34-2.1h0a1.33,1.33,0,0,1,2.1.34Zm2.29-1.65h0a4.19,4.19,0,0,0-2.84-1.75,4.13,4.13,0,0,0-3.19.77h0a8.16,8.16,0,0,0-2.63,3.74q-1.08,2.63-.31,3.7h0q.75,1,3.61.88a8.16,8.16,0,0,0,4.38-1.31h0a4.08,4.08,0,0,0,1.72-2.82,4.08,4.08,0,0,0-.74-3.22Zm.36-.26a4.75,4.75,0,0,1-1.1,6.61h0a8.68,8.68,0,0,1-4.6,1.37q-3.1.2-4-1h0q-.88-1.22.28-4.13a8.68,8.68,0,0,1,2.76-3.93h0a4.75,4.75,0,0,1,3.55-.84,4.67,4.67,0,0,1,3.1,1.92Zm-5.31.71a5.3,5.3,0,0,0-1.08,1.32q-.53,1-.45,1.13l1.65,2.29q.24.33,1.22-.06a4.48,4.48,0,0,0,1.59-.61,2.26,2.26,0,0,0,.7-3.48,2.32,2.32,0,0,0-3.63-.59Zm3.91.3,0,.06h0q1.63,2.26-.77,4.07a5.86,5.86,0,0,1-1.76.68,8.4,8.4,0,0,1-1.2.09.55.55,0,0,1-.43-.23l-1.65-2.29a.66.66,0,0,1-.09-.43,3.39,3.39,0,0,1,.5-1.13A5.29,5.29,0,0,1,149,21.21a2.68,2.68,0,0,1,4.15.62Zm-42,8.21L87.58,47q-.53.39-4.71,3.93T79.09,55l.58.8q.36.51,5-2.33t5.22-3.22l23.5-16.92a2.73,2.73,0,0,0,.91-.43l4.58-3.29A5.14,5.14,0,0,0,120.17,28a1.78,1.78,0,0,0,.11-2q-1.25-1.8-3.9.1l-4.58,3.29a2.72,2.72,0,0,0-.72.7Z"/><text class="cls-7" transform="translate(0.25 66.78)">C<tspan class="cls-8" x="29.03" y="0">a</tspan><tspan x="52.83" y="0">sh</tspan></text><text class="cls-7" transform="translate(114.52 66.78)">Trak</text></g></g></svg>