<svg xmlns="http://www.w3.org/2000/svg" xmlns:xlink="http://www.w3.org/1999/xlink" viewBox="0 0 201.22 76.34"><defs><style>.cls-1{fill:url(#linear-gradient);}.cls-2{fill:url(#linear-gradient-2);}.cls-3{fill:url(#linear-gradient-3);}.cls-4{fill:url(#linear-gradient-4);}.cls-5{fill:url(#linear-gradient-5);}.cls-6{fill:url(#linear-gradient-6);}.cls-7{font-size:35.31px;fill:#43840b;stroke:#000;stroke-miterlimit:10;stroke-width:0.75px;font-family:Orbitron-Light, Orbitron;}.cls-8{letter-spacing:-0.02em;}</style><linearGradient id="linear-gradient" x1="32.8" y1="18.57" x2="81.58" y2="18.57" gradientUnits="userSpaceOnUse"><stop offset="0" stop-color="#009c33"/><stop offset="0.46" stop-color="#006b1b"/><stop offset="1" stop-color="#003501"/><stop offset="1" stop-color="#030"/></linearGradient><linearGradient id="linear-gradient-2" x1="52.6" y1="18.55" x2="61.77" y2="18.55" xlink:href="#linear-gradient"/><linearGradient id="linear-gradient-3" x1="56.51" y1="25.45" x2="57.86" y2="25.45" xlink:href="#linear-gradient"/><linearGradient id="linear-gradient-4" x1="56.51" y1="11.67" x2="57.86" y2="11.67" xlink:href="#linear-gradient"/><linearGradient id="linear-gradient-5" x1="38.22" y1="18.8" x2="53.13" y2="18.8" xlink:href="#linear-gradient"/><linearGradient id="linear-gradient-6" x1="61.25" y1="18.33" x2="76.16" y2="18.33" xlink:href="#linear-gradient"/></defs><title>Asset 1</title><g id="Layer_2" data-name="Layer 2"><g id="Layer_1-2" data-name="Layer 1"><path class="cls-1" d="M80.22,4.75a23,23,0,0,1-7.31-1,25.56,25.56,0,0,0-8-1.13,25.55,25.55,0,0,0-8,1.13,23,23,0,0,1-7.31,1,23,23,0,0,1-7.31-1,25.54,25.54,0,0,0-8-1.13A1.35,1.35,0,0,0,32.8,3.93V31a1.35,1.35,0,0,0,1.35,1.35,23,23,0,0,1,7.31,1,25.56,25.56,0,0,0,8,1.13,25.55,25.55,0,0,0,8-1.13,23,23,0,0,1,7.31-1,23,23,0,0,1,7.31,1,25.54,25.54,0,0,0,8,1.13,1.35,1.35,0,0,0,1.35-1.35V6.1A1.35,1.35,0,0,0,80.22,4.75ZM78.87,31.82a22.33,22.33,0,0,1-6-1,25.56,25.56,0,0,0-8-1.13,25.55,25.55,0,0,0-8,1.13,23,23,0,0,1-7.31,1,23,23,0,0,1-7.31-1,24.93,24.93,0,0,0-6.69-1.11V5.31a22.33,22.33,0,0,1,6,1,25.56,25.56,0,0,0,8,1.13,25.55,25.55,0,0,0,8-1.13,23,23,0,0,1,7.31-1,23,23,0,0,1,7.31,1,24.93,24.93,0,0,0,6.69,1.11Z"/><path class="cls-2" d="M57.65,17.7c-2.58-.6-3.15-1.3-3.21-2.16a1.64,1.64,0,0,1,.64-1.38,4.08,4.08,0,0,1,2.44-.84,6.84,6.84,0,0,1,2.88.35.68.68,0,0,0,.48-1.27,8,8,0,0,0-3-.45v.72a.68.68,0,0,1-1.35,0v-.58a5,5,0,0,0-2.32,1,3,3,0,0,0-1.11,2.5c.15,2.15,2.24,2.92,4.25,3.38,2.47.61,3,1.32,3.08,2.28.1,1.38-1.22,2.33-3.42,2.48a7.86,7.86,0,0,1-3.44-.5A.68.68,0,1,0,53,24.51a9,9,0,0,0,3.44.64h.07v-.71a.68.68,0,1,1,1.35,0V25c3-.47,4-2.31,3.9-3.84C61.61,19,59.6,18.18,57.65,17.7Z"/><path class="cls-3" d="M57.19,23.76a.68.68,0,0,0-.68.68v2a.68.68,0,0,0,1.35,0v-2A.68.68,0,0,0,57.19,23.76Z"/><path class="cls-4" d="M57.19,13.35a.68.68,0,0,0,.68-.68v-2a.68.68,0,1,0-1.35,0v2A.68.68,0,0,0,57.19,13.35Z"/><path class="cls-5" d="M52.75,27.7a10.15,10.15,0,0,1-2.68-16.37.67.67,0,0,0,.11-.74.73.73,0,0,0-.67-.42,28.21,28.21,0,0,1-8.78-1.24c-.57-.16-1.1-.31-1.68-.44a.68.68,0,0,0-.83.66V26.6a.68.68,0,0,0,.58.67,29.65,29.65,0,0,1,4.14.94,20.18,20.18,0,0,0,6.57.93,25.57,25.57,0,0,0,3-.16.68.68,0,0,0,.22-1.28Zm-3.24.08a19.06,19.06,0,0,1-6.21-.88A33,33,0,0,0,39.57,26V10l.78.22A28.76,28.76,0,0,0,48.1,11.5a11.51,11.51,0,0,0,2.18,16.27Z"/><path class="cls-6" d="M64.86,8a25.57,25.57,0,0,0-3,.16.68.68,0,0,0-.22,1.28,10.15,10.15,0,0,1,2.68,16.37.67.67,0,0,0-.11.74.73.73,0,0,0,.67.42,28.21,28.21,0,0,1,8.78,1.24c.57.16,1.1.31,1.68.44l.15,0a.68.68,0,0,0,.68-.68V10.53a.68.68,0,0,0-.58-.67,29.65,29.65,0,0,1-4.14-.94A20.18,20.18,0,0,0,64.86,8ZM74.8,27.12,74,26.9a28.76,28.76,0,0,0-7.74-1.26A11.5,11.5,0,0,0,64.1,9.36h.77a19.06,19.06,0,0,1,6.21.88,33,33,0,0,0,3.73.88v16Z"/><path d="M164.18,5.85a20,20,0,0,0-27.15-1,19.4,19.4,0,0,0-6.7,12l3.94.31a2.62,2.62,0,0,1,2.39,1.43h1.4a1.14,1.14,0,0,1,1.3,1.27,1.14,1.14,0,0,1-1.3,1.27h-1.27a2.69,2.69,0,0,1-2.51,1.64l-3.94.34a19.38,19.38,0,0,0,6.7,12,19.94,19.94,0,0,0,27.15-1A19.21,19.21,0,0,0,170,20,19.23,19.23,0,0,0,164.18,5.85Zm-5.84,13.63a.39.39,0,1,0,.39-.39A.39.39,0,0,0,158.34,19.47Zm-7.69-8.17a.39.39,0,1,0,.39-.39A.39.39,0,0,0,150.65,11.31Zm-.92,0a.39.39,0,1,0,.39-.39A.39.39,0,0,0,149.74,11.31Zm8.61,9.09a.39.39,0,1,0,.39-.39A.39.39,0,0,0,158.34,20.39Zm-7.69,8.21a.39.39,0,1,0,.39-.39A.39.39,0,0,0,150.65,28.6Zm-.92,0a.39.39,0,1,0,.39-.39A.39.39,0,0,0,149.74,28.6ZM87.37,5.18a35.78,35.78,0,0,1,3.72-.43l-3.41-.06Zm36.76,12.44a4.69,4.69,0,0,1-2.08-1.43l-7.45-7.6h-8.19l12.78,9.28v.31a6.73,6.73,0,0,0,4.93-.56ZM127.64,6.7a1.55,1.55,0,0,1-.43.71h-.37L126.37,7h-5.83V6.7Zm-.43-1.18a1.54,1.54,0,0,1,.43.74h-7.1V5.93h5.83l.47-.4ZM87.37,34.78l.31.5,3.41-.06q-2.48-.25-3.72-.43Zm36.76-12.44a6.54,6.54,0,0,0-4.93-.56v.31l-12.78,9.28h8.19l7.45-7.63a4.62,4.62,0,0,1,2.08-1.4Zm3.51,10.92h-7.1v-.34h5.83l.47-.4h.37a2,2,0,0,1,.43.74Zm-.43,1.15h-.37l-.47-.37h-5.83v-.34h7.1a1.79,1.79,0,0,1-.43.71Zm-7.54.71a2.31,2.31,0,0,0,.84.16h4.78q2.73,0,2.73-1.86A1.47,1.47,0,0,0,127,32a4.45,4.45,0,0,0-1.71-.45H120.5a2.31,2.31,0,0,0-.84.12H95.12q-.56,0-5.18.36T85.32,33v.87q0,.5,4.62.88t5.18.39Zm9.21-15.26h-3.13q-.37.12,0,.25h3.13Zm-3.2.62h-.4v-1h.4a14.53,14.53,0,0,1,3.63-.84l.34-1.86.34,0q.06-.47.25-1.33a59.21,59.21,0,0,0-7.88.5,6.11,6.11,0,0,0,.84.81,3.1,3.1,0,0,0,1,.5l.93.22-.87.43a8.21,8.21,0,0,1-3.69.74,6.43,6.43,0,0,1-.78,0q-.47-.06-.74-.12h0l-.25-.09V18l-1.77-1.27q-4.56.62-6.17.65-3.47,0-3.47,2.58t3.47,2.58a50.07,50.07,0,0,1,6.17.65l1.77-1.27v-.4l.25-.09h0a3.07,3.07,0,0,1,.74-.12,6.43,6.43,0,0,1,.78,0,8.21,8.21,0,0,1,3.69.74l.87.4-.93.25a2.46,2.46,0,0,0-1,.5,3.54,3.54,0,0,0-.84.78,60.47,60.47,0,0,0,7.88.53,12.83,12.83,0,0,1-.25-1.33h-.34l-.34-1.83a18.24,18.24,0,0,1-3.63-.84ZM129.25,19a16.47,16.47,0,0,0-2.45.5h2.14l.28-.31Zm-.31,1.49H126.8a24.24,24.24,0,0,0,2.45.5l0-.19ZM139,19.86a.82.82,0,0,0-.93-.93h-1.58a2.35,2.35,0,0,0-2.23-1.4L130,17.16l-.43,2.17-.31.37v.56l.31.37.43,2.14,4.28-.37a2.3,2.3,0,0,0,2.33-1.61h1.49a.82.82,0,0,0,.93-.93Zm-3.44.12h0a1.14,1.14,0,0,0-1.3-1.27h0A1.12,1.12,0,0,0,133,20h0a1.14,1.14,0,0,0,1.27,1.3h0a1.15,1.15,0,0,0,1.3-1.3Zm.34,0a1.45,1.45,0,0,1-1.64,1.64h0A1.45,1.45,0,0,1,132.6,20h0a1.45,1.45,0,0,1,1.64-1.64h0A1.45,1.45,0,0,1,135.89,20Zm-1,0h0a.55.55,0,0,0-.62-.62h0q-.59,0-.59.62h0q0,.62.59.62h0a.55.55,0,0,0,.62-.62Zm.34,0a.85.85,0,0,1-1,1h0a.84.84,0,0,1-.93-1h0a.84.84,0,0,1,.93-1h0a.85.85,0,0,1,1,1ZM132,19.82v.31h-2.58v-.31ZM151,20h0q-.06-.93-.93-.93h0a.82.82,0,0,0-.93.93h0a.82.82,0,0,0,.93.93h0A.82.82,0,0,0,151,20Zm.34,0a1.12,1.12,0,0,1-1.27,1.27h0A1.12,1.12,0,0,1,148.8,20h0a1.12,1.12,0,0,1,1.27-1.27h0A1.12,1.12,0,0,1,151.34,20Zm2.39,0h0a3.55,3.55,0,0,0-1.09-2.61,3.5,3.5,0,0,0-2.58-1.05h0a6.91,6.91,0,0,0-3.66,1.27q-2,1.27-2,2.39h0q0,1.09,2,2.39a6.91,6.91,0,0,0,3.66,1.27h0A3.71,3.71,0,0,0,153.73,20Zm.37,0a4,4,0,0,1-4,4h0a7.36,7.36,0,0,1-3.85-1.33Q144,21.25,144,20h0q0-1.27,2.23-2.7a7.36,7.36,0,0,1,3.85-1.33h0a4,4,0,0,1,2.85,1.18A4,4,0,0,1,154.1,20Zm-4-2.14a4.49,4.49,0,0,0-1.4.37q-.87.43-.87.56v2.39q0,.34.87.56a3.79,3.79,0,0,0,1.4.37,1.92,1.92,0,0,0,2.2-2,2,2,0,0,0-2.2-2.2ZM152.64,20V20h0q0,2.36-2.54,2.42a5,5,0,0,1-1.55-.4,7.11,7.11,0,0,1-.87-.53.47.47,0,0,1-.19-.37V18.77a.56.56,0,0,1,.16-.34,2.87,2.87,0,0,1,.9-.53,4.49,4.49,0,0,1,1.55-.4A2.27,2.27,0,0,1,152.64,20Zm-33-15.17H95.12q-.56,0-5.18.37t-4.62.93v.84q0,.53,4.62.9t5.18.37h24.54a2.31,2.31,0,0,0,.84.16h4.78a4.35,4.35,0,0,0,1.66-.5Q128,7.38,128,6.55q0-1.86-2.73-1.86H120.5a2.31,2.31,0,0,0-.84.12Z"/><text class="cls-7" transform="translate(0.38 67.38)">C<tspan class="cls-8" x="29.03" y="0">a</tspan><tspan x="52.83" y="0">sh</tspan></text><text class="cls-7" transform="translate(108.65 67.38)">Trak</text></g></g></svg>